<?xml version="1.0" encoding="UTF-8"?>
<svg width="45px" height="45px" viewBox="0 0 45 45" version="1.1" xmlns="http://www.w3.org/2000/svg" xmlns:xlink="http://www.w3.org/1999/xlink">
    <!-- Generator: Sketch 63 (92445) - https://sketch.com -->
    <title>OIN Price</title>
    <desc>Created with Sketch.</desc>
    <defs>
        <polygon id="path-1" points="5.75999997e-05 -1.28004274e-12 18.5768064 -1.28004274e-12 18.5768064 18.5768064 5.75999997e-05 18.5768064"></polygon>
    </defs>
    <g id="0508V1.7" stroke="none" stroke-width="1" fill="none" fill-rule="evenodd">
        <g id="Borrow" transform="translate(-347.000000, -195.000000)">
            <g id="编组-3" transform="translate(57.000000, 21.000000)">
                <g id="卡片三个" transform="translate(272.000000, 141.000000)">
                    <g id="卡片一">
                        <g id="OIN-Price" transform="translate(18.000000, 33.000000)">
                            <rect id="矩形" fill="#D8D2FF" x="0" y="0" width="44.16" height="44.16" rx="9.6"></rect>
                            <g id="OIN" transform="translate(9.600000, 11.520000)">
                                <rect id="矩形" x="0" y="0" width="23.04" height="23.04"></rect>
                                <g id="编组" transform="translate(2.880000, 0.960000)">
                                    <mask id="mask-2" fill="white">
                                        <use xlink:href="#path-1"></use>
                                    </mask>
                                    <g id="Clip-2"></g>
                                    <path d="M9.2867904,17.4142771 C7.3124928,17.4142771 5.3379648,17.0684467 3.7153728,16.6014259 C2.08944,16.1371699 1.1616192,15.4397491 1.1616192,14.6273587 L1.1616192,12.8863411 C2.323296,13.4657971 3.1358016,13.9324723 4.4129088,14.2784179 C5.805216,14.6271283 7.5488832,14.8606387 9.1718208,14.8606387 C10.9127232,14.8606387 12.5384256,14.6272435 14.0488128,14.2784179 C15.4437696,13.9298227 16.256736,13.4656819 17.4154176,12.8863411 L17.4154176,14.6273587 C17.4154176,15.3246643 16.4873664,16.0223155 14.8617792,16.6014259 C13.3511616,17.1808819 11.1463488,17.4140467 9.287136,17.4140467 L9.2867904,17.4142771 Z M14.8609728,12.8865715 C13.3503552,13.3505971 11.2609728,13.6994227 9.2863296,13.6994227 C7.3116864,13.6994227 5.3376192,13.3508275 3.714912,12.8865715 C2.0890944,12.4225459 1.1611584,11.7248947 1.1611584,10.9123891 L1.1611584,9.17137152 C2.3228352,9.75347712 3.135456,10.2178483 4.412448,10.5664435 C5.9230656,10.9150387 7.5484224,11.1458995 9.2895552,11.1458995 C11.0304576,11.1458995 12.6560448,10.9125043 14.1660864,10.5664435 C15.4430784,10.2177331 16.2559296,9.75359232 17.417376,9.17137152 L17.417376,10.9123891 C17.4147264,11.7251251 16.4866752,12.4228915 14.861088,12.8865715 L14.8609728,12.8865715 Z M14.8609728,9.17137152 C13.3503552,9.63539712 11.2609728,9.98422272 9.2863296,9.98422272 C7.3116864,9.98422272 5.3376192,9.63562752 3.714912,9.17160192 C2.0890944,8.59203072 1.1611584,7.89460992 1.1611584,7.19741952 L1.1611584,5.92031232 C2.3228352,6.38433792 3.135456,6.96367872 4.412448,7.19741952 C5.9230656,7.54601472 7.5484224,7.77940992 9.2895552,7.77940992 C11.0304576,7.77940992 12.6560448,7.54601472 14.1660864,7.19741952 C15.4430784,6.96402432 16.2559296,6.38445312 17.417376,5.92031232 L17.417376,7.31250432 C17.4147264,7.89472512 16.4866752,8.59214592 14.861088,9.17148672 L14.8609728,9.17137152 Z M14.743008,5.80488192 C13.2323904,6.38698752 11.143008,6.61773312 9.2867904,6.61773312 C7.3124928,6.61773312 5.3379648,6.38433792 3.8305728,5.80488192 C2.0896704,5.34051072 1.2769344,4.64320512 1.2769344,3.94854912 C1.2769344,3.25377792 2.2047552,2.55624192 3.8305728,1.97436672 C5.3381952,1.39491072 7.3121472,1.16140032 9.2867904,1.16140032 C11.143008,1.16140032 13.2355008,1.50999552 14.743008,1.97436672 C16.3689408,2.55370752 17.2966534,3.25135872 17.2966534,3.94854912 C17.2994112,4.64320512 16.4866752,5.34074112 14.743008,5.80488192 L14.743008,5.80488192 Z M15.7894848,1.04332032 C14.1640128,0.34877952 11.8406592,-4.608e-05 9.2869056,-4.608e-05 C6.733152,-4.608e-05 4.4103744,0.34866432 2.7873216,1.04332032 C0.931104,1.85594112 5.76e-05,2.78410752 5.76e-05,3.94578432 L5.76e-05,14.7430195 C5.76e-05,15.7892659 0.9278784,16.8327475 2.7873216,17.5302835 C4.4127936,18.2278195 6.7361472,18.5768755 9.2869056,18.5768755 C11.8406592,18.5768755 14.1640128,18.2281651 15.7894848,17.5302835 C17.5305024,16.8328627 18.576864,15.7893811 18.576864,14.7430195 L18.576864,3.94578432 C18.576864,2.78733312 17.646048,1.85605632 15.7894848,1.04332032 L15.7894848,1.04332032 Z" id="Fill-1" fill="#625FF5" mask="url(#mask-2)"></path>
                                </g>
                            </g>
                        </g>
                    </g>
                </g>
            </g>
        </g>
    </g>
</svg>