<?xml version="1.0" encoding="UTF-8"?>
<svg width="45px" height="45px" viewBox="0 0 45 45" version="1.1" xmlns="http://www.w3.org/2000/svg" xmlns:xlink="http://www.w3.org/1999/xlink">
    <!-- Generator: Sketch 63 (92445) - https://sketch.com -->
    <title>OIN Price备份</title>
    <desc>Created with Sketch.</desc>
    <defs>
        <polygon id="path-1" points="1.16756757e-05 0.0373037838 19.9975135 0.0373037838 19.9975135 22.3005405 1.16756757e-05 22.3005405"></polygon>
    </defs>
    <g id="0508V1.7" stroke="none" stroke-width="1" fill="none" fill-rule="evenodd">
        <g id="Borrow" transform="translate(-599.000000, -195.000000)">
            <g id="编组-3" transform="translate(57.000000, 21.000000)">
                <g id="卡片三个" transform="translate(272.000000, 141.000000)">
                    <g id="卡片一备份-2" transform="translate(252.000000, 0.000000)">
                        <g id="OIN-Price备份" transform="translate(18.000000, 33.000000)">
                            <rect id="矩形" fill="#D8D2FF" x="0" y="0" width="44.16" height="44.16" rx="9.6"></rect>
                            <g id="编组" transform="translate(12.000000, 10.000000)">
                                <g transform="translate(0.000000, 0.079511)">
                                    <mask id="mask-2" fill="white">
                                        <use xlink:href="#path-1"></use>
                                    </mask>
                                    <g id="Clip-2"></g>
                                    <path d="M10.606429,1.66063135 L17.9299965,5.88816 C18.3054863,6.10509405 18.5380657,6.50697081 18.5380657,6.94095568 L18.5380657,15.3961297 C18.5380657,15.8309319 18.3054863,16.2329254 17.9299965,16.4498595 L10.6053782,20.6783222 C10.2291879,20.8956065 9.76543005,20.8956065 9.38923978,20.6783222 L2.06660627,16.4498595 C1.690416,16.2326919 1.45865384,15.8313989 1.45842032,15.3970638 L1.45842032,6.94188973 C1.45842032,6.50697081 1.69006573,6.10509405 2.06660627,5.88816 L9.38923978,1.6596973 C9.76543005,1.44241297 10.2291879,1.44241297 10.6053782,1.6596973 L10.606429,1.66063135 Z M8.66044411,0.395805405 L1.33781059,4.62426811 C0.510121946,5.10215351 0.000245189189,5.98518486 1.16756757e-05,6.94095568 L1.16756757e-05,15.3961297 C1.16756757e-05,16.3524843 0.509771676,17.2359827 1.33781059,17.7136346 L8.66044411,21.9422141 C9.48836627,22.4199827 10.5090538,22.4199827 11.3361587,21.9422141 L18.6597263,17.7136346 C19.4872982,17.2357492 19.9975253,16.3528346 19.9975253,15.3970638 L19.9975253,6.94188973 C19.9977587,5.98576865 19.4876484,5.10238703 18.6597263,4.62426811 L11.3351079,0.395805405 C10.5071857,-0.0821967568 9.48731546,-0.0821967568 8.65951005,0.395805405 L8.66044411,0.395805405 Z" id="Fill-1" fill="#625FF5" mask="url(#mask-2)"></path>
                                </g>
                                <path d="M5.81643632,15.5554093 C5.530032,15.5555261 5.29780281,15.3234136 5.29768587,15.0370093 C5.2975693,14.8993531 5.35221146,14.7673012 5.44958659,14.6699261 L13.5787758,6.53886876 C13.7814655,6.33629578 14.1097855,6.33629578 14.3124752,6.53886876 C14.5150482,6.74144173 14.5150482,7.06987849 14.3124752,7.27245146 L6.18328605,15.4025747 C6.08614443,15.5003001 5.9542093,15.5552925 5.81643632,15.5554093 M14.8971931,13.5656406 C14.8955585,12.2288925 13.8121725,11.1455066 12.4754244,11.1439888 C11.1382093,11.1455066 10.0548234,12.2294763 10.0537725,13.5666915 C10.0558742,14.9034396 11.1396104,15.9862417 12.4764752,15.9874093 C13.8128731,15.9853077 14.8955585,14.9020385 14.8971931,13.5656406 M13.858992,13.5656406 C13.858992,14.3284125 13.2381963,14.9492082 12.4754244,14.9492082 C11.7117185,14.9481574 11.0929077,14.3293466 11.0919736,13.5656406 C11.0919736,12.8028688 11.7126525,12.1820731 12.4754244,12.1820731 C13.2381963,12.1820731 13.858992,12.8028688 13.858992,13.5656406 M9.70840605,8.37778768 C9.70723849,7.04022227 8.62326876,5.95613578 7.28558659,5.95508497 C5.94918876,5.95718659 4.86650335,7.04033903 4.86486876,8.37685362 C4.86650335,9.71360173 5.94977254,10.7968709 7.28663741,10.7985055 C8.62373578,10.7968709 9.70723849,9.71301795 9.70840605,8.37580281 M8.67008822,8.37685362 C8.67008822,9.13962551 8.0494093,9.76030443 7.28663741,9.76030443 C6.52328173,9.75925362 5.90458768,9.14102659 5.90306984,8.37778768 C5.90306984,7.61489903 6.52374876,6.99422011 7.28663741,6.99422011 C8.0494093,6.99422011 8.67008822,7.61489903 8.67008822,8.37778768" id="Fill-3" fill="#625FF5"></path>
                            </g>
                        </g>
                    </g>
                </g>
            </g>
        </g>
    </g>
</svg>