<?xml version="1.0" encoding="UTF-8"?>
<svg width="45px" height="45px" viewBox="0 0 45 45" version="1.1" xmlns="http://www.w3.org/2000/svg" xmlns:xlink="http://www.w3.org/1999/xlink">
    <!-- Generator: Sketch 63 (92445) - https://sketch.com -->
    <title>OIN Price备份 2</title>
    <desc>Created with Sketch.</desc>
    <defs>
        <polygon id="path-1" points="3.52702703e-05 4.7027027e-05 11.0973203 4.7027027e-05 11.0973203 20.5657889 3.52702703e-05 20.5657889"></polygon>
    </defs>
    <g id="0508V1.7" stroke="none" stroke-width="1" fill="none" fill-rule="evenodd">
        <g id="Borrow" transform="translate(-852.000000, -195.000000)">
            <g id="编组-3" transform="translate(57.000000, 21.000000)">
                <g id="卡片三个" transform="translate(272.000000, 141.000000)">
                    <g id="卡片一备份-3" transform="translate(505.000000, 0.000000)">
                        <g id="OIN-Price备份-2" transform="translate(18.000000, 33.000000)">
                            <rect id="矩形" fill="#D8D2FF" x="0" y="0" width="44.16" height="44.16" rx="9.6"></rect>
                            <g id="编组" transform="translate(16.000000, 12.000000)">
                                <mask id="mask-2" fill="white">
                                    <use xlink:href="#path-1"></use>
                                </mask>
                                <g id="Clip-2"></g>
                                <path d="M6.56465554,17.0260646 C7.36552581,16.9269551 7.65250824,16.7945741 8.19719878,16.2200214 C8.63349203,15.7597443 8.98090419,14.8890389 8.98090419,14.0118673 C8.98090419,13.2644903 8.79597041,12.6638376 8.42610284,12.2100268 C8.0561177,11.7563335 7.67049608,11.3501376 6.56477311,10.9915565 L6.56477311,17.0260646 L6.56465554,17.0260646 Z M4.858515,3.02894027 C4.0577623,3.15097541 3.56750554,3.47134703 3.10617041,3.98993757 C2.64448257,4.50864568 2.41393257,5.12246595 2.41393257,5.83186865 C2.41393257,6.53362946 2.61015284,7.12087946 3.00318122,7.59373622 C3.39585689,8.06671054 3.92044338,8.44422 4.858515,8.72638216 L4.858515,3.02894027 Z M4.858515,20.5657889 L4.858515,19.0000241 C3.82885824,18.8702295 3.13274068,18.6396795 2.48835284,18.3077862 C1.84372986,17.9760105 1.28704743,17.4402551 0.818070405,16.7004024 C0.348975811,15.9606673 0.0762190541,15.0569254 3.52702703e-05,13.9890592 L2.07075284,13.6000281 C2.23087986,14.7061038 2.51304203,15.5182605 2.91735689,16.0368511 C3.49684743,16.7690619 4.05000284,16.9187254 4.858515,17.0025511 L4.858515,10.7055146 C4.01191095,10.5453876 3.28722446,10.2174916 2.40252851,9.72170919 C1.74650149,9.35560378 1.24131365,8.8484173 0.886612297,8.20014973 C0.531910946,7.55188216 0.354619054,6.81579162 0.354619054,5.99199568 C0.354619054,4.52757405 0.873209595,3.34167 1.91062581,2.43404838 C2.60450959,1.8238727 3.49320284,1.35607135 4.858515,1.21887 L4.858515,4.7027027e-05 L6.56465554,4.7027027e-05 L6.56465554,1.21887 C7.76208122,1.33326324 8.35920689,1.77813892 9.06085014,2.36538892 C9.96082986,3.11300108 10.5024636,4.13866054 10.6855164,5.44295514 L8.55754338,5.76320919 C8.43539068,4.95493216 8.17815284,4.33840784 7.79664608,3.90411324 C7.61347581,3.69543081 7.23573122,3.1890673 6.56465554,3.05186595 L6.56465554,8.98949838 C7.60183662,9.24885243 7.93572851,9.45106865 8.27150149,9.59579432 C8.91224473,9.87807405 9.43447986,10.2213714 9.8389123,10.6255686 C10.242992,11.0298835 10.5539582,11.5103822 10.7712231,12.066947 C10.9886055,12.6238646 11.0973555,13.2265159 11.0973555,13.8745484 C11.0973555,15.3008781 10.6434272,16.4907795 9.73604068,17.4441349 C8.82818392,18.3976078 8.00626905,18.9085565 6.56465554,18.9772159 L6.56465554,20.5657889 L4.858515,20.5657889 Z" id="Fill-1" fill="#625FF5" mask="url(#mask-2)"></path>
                            </g>
                        </g>
                    </g>
                </g>
            </g>
        </g>
    </g>
</svg>